<?xml version="1.0" encoding="UTF-8"?>
<svg xmlns="http://www.w3.org/2000/svg" viewBox="0 0 561.62 524.24">
  <defs>
    <style>
      .cls-1, .cls-2 {
        fill: #fff;
      }

      .cls-3 {
        fill: none;
      }

      .cls-3, .cls-2 {
        stroke: #fff;
        stroke-linecap: round;
        stroke-miterlimit: 10;
      }
    </style>
  </defs>
  <g id="Layer_2" data-name="Layer 2">
    <path class="cls-2" d="M369.95,204.47l-65.53-10.24-27.55-4.31c-7.54-1.18-10.56-10.43-5.16-15.83l.38-.38c-11.28-4.41-23.57-6.83-36.42-6.83-6.25,0-12.36,.57-18.3,1.66-1.8,.33-3.35-1.26-2.97-3.05l10.24-47.61c.68-3.18-.34-6.48-2.69-8.73l-34.09-32.47c-1.47-1.4-.8-3.88,1.18-4.35,14.96-3.57,30.58-5.46,46.63-5.46,40,0,77.24,11.71,108.49,31.9,1.01,.66,2.34,.52,3.2-.33l2.88-2.88c5.4-5.4,14.65-2.39,15.83,5.16l2.62,16.73,11.94,76.35c.97,6.25-4.42,11.64-10.67,10.66Z"/>
    <path class="cls-2" d="M196.24,106.5l-7.34,46.93-4.28,27.44-2.93,18.71c-1.18,7.54-10.43,10.56-15.83,5.16l-1.17-1.17c-1.89-1.89-5.02-1.77-6.71,.31-2.85,3.51-5.47,7.21-7.82,11.09-9.2,15.13-14.49,32.89-14.49,51.91s5.37,37.06,14.71,52.26c7.52,12.27,17.62,22.79,29.55,30.8,2.62,1.76,2.72,5.58,.17,7.44l-37.11,27.13c-2.62,1.92-4.06,5.06-3.8,8.3l3.54,43.18c.3,3.65-3.63,6.14-6.8,4.31-45.34-26.11-79.45-69.48-93.38-121.18-4.49-16.66-6.88-34.18-6.88-52.26s2.36-35.36,6.79-51.91c8.34-31.17,24.01-59.32,45.04-82.5,1.62-1.79,1.55-4.54-.16-6.25h0c-5.4-5.4-2.38-14.65,5.16-15.83l23.25-3.64,56.07-8.76,13.76-2.15c6.25-.98,11.64,4.41,10.66,10.66Z"/>
    <path class="cls-2" d="M382.08,403.2c-32.48,34.88-77.29,58.11-127.53,62.8-3.88,.36-7.8,.62-11.75,.75l-.03,.26c-.85,7.59-9.96,11-15.59,5.84l-7.17-6.57-46.05-42.19-16.24-14.88c-4.66-4.28-3.82-11.86,1.68-14.99l38.17-21.8,14.58-8.33,29.06-16.59c6.63-3.79,14.76,1.56,13.91,9.15l-.95,8.52c2.93-.55,5.83-1.22,8.66-2.02,15.32-4.3,29.15-12.16,40.53-22.63,4.7-4.32,11.82-4.66,16.98-.92l59.84,43.4c6.59,4.78,7.45,14.24,1.9,20.2Z"/>
  </g>
  <g id="Layer_4" data-name="Layer 4">
    <path class="cls-2" d="M521.37,330.27c2.01,2.02,.58,5.46-2.26,5.46h-87.43c-2.02-.18-3.89-1.13-5.11-2.68-.21-.26-.39-.54-.55-.83l6.78-3.54,37.78-19.76-23.01-20.94,13.08-22.4c.58-.99,1.63-1.59,2.77-1.59h56.17c2.84,0,4.27,3.44,2.26,5.46l-28.27,28.39c-1.24,1.25-1.24,3.27,0,4.52l27.79,27.91Z"/>
    <path class="cls-3" d="M470.58,308.92l-37.78,19.76-6.78,3.54c-1.2-2.09-1.24-4.78-.15-7.08l.69-1.19,21.01-35.97,23.01,20.94Z"/>
  </g>
  <g id="Layer_3" data-name="Layer 3">
    <path class="cls-1" d="M226.66,244.26c-.12-.44-.36-.77-.72-.97-.37-.2-.81-.31-1.33-.31-.36,0-.72,.06-1.08,.17-.36,.12-.7,.29-1.02,.51-.32,.22-.61,.47-.85,.76-.25,.29-.44,.57-.59,.84-.15,.27-.32,.64-.51,1.12h5.93c.06-.2,.1-.38,.14-.52,.14-.62,.15-1.16,.03-1.6Zm0,0c-.12-.44-.36-.77-.72-.97-.37-.2-.81-.31-1.33-.31-.36,0-.72,.06-1.08,.17-.36,.12-.7,.29-1.02,.51-.32,.22-.61,.47-.85,.76-.25,.29-.44,.57-.59,.84-.15,.27-.32,.64-.51,1.12h5.93c.06-.2,.1-.38,.14-.52,.14-.62,.15-1.16,.03-1.6Zm0,0c-.12-.44-.36-.77-.72-.97-.37-.2-.81-.31-1.33-.31-.36,0-.72,.06-1.08,.17-.36,.12-.7,.29-1.02,.51-.32,.22-.61,.47-.85,.76-.25,.29-.44,.57-.59,.84-.15,.27-.32,.64-.51,1.12h5.93c.06-.2,.1-.38,.14-.52,.14-.62,.15-1.16,.03-1.6Zm0,0c-.12-.44-.36-.77-.72-.97-.37-.2-.81-.31-1.33-.31-.36,0-.72,.06-1.08,.17-.36,.12-.7,.29-1.02,.51-.32,.22-.61,.47-.85,.76-.25,.29-.44,.57-.59,.84-.15,.27-.32,.64-.51,1.12h5.93c.06-.2,.1-.38,.14-.52,.14-.62,.15-1.16,.03-1.6Zm0,0c-.12-.44-.36-.77-.72-.97-.37-.2-.81-.31-1.33-.31-.36,0-.72,.06-1.08,.17-.36,.12-.7,.29-1.02,.51-.32,.22-.61,.47-.85,.76-.25,.29-.44,.57-.59,.84-.15,.27-.32,.64-.51,1.12h5.93c.06-.2,.1-.38,.14-.52,.14-.62,.15-1.16,.03-1.6Zm0,0c-.12-.44-.36-.77-.72-.97-.37-.2-.81-.31-1.33-.31-.36,0-.72,.06-1.08,.17-.36,.12-.7,.29-1.02,.51-.32,.22-.61,.47-.85,.76-.25,.29-.44,.57-.59,.84-.15,.27-.32,.64-.51,1.12h5.93c.06-.2,.1-.38,.14-.52,.14-.62,.15-1.16,.03-1.6Zm0,0c-.12-.44-.36-.77-.72-.97-.37-.2-.81-.31-1.33-.31-.36,0-.72,.06-1.08,.17-.36,.12-.7,.29-1.02,.51-.32,.22-.61,.47-.85,.76-.25,.29-.44,.57-.59,.84-.15,.27-.32,.64-.51,1.12h5.93c.06-.2,.1-.38,.14-.52,.14-.62,.15-1.16,.03-1.6Zm110.55,0c-.11-.44-.36-.77-.72-.97-.37-.2-.81-.31-1.33-.31-.35,0-.72,.06-1.08,.17-.36,.12-.7,.29-1.02,.51-.32,.22-.6,.47-.85,.76-.25,.29-.44,.57-.59,.84-.14,.27-.32,.64-.51,1.12h5.93c.06-.2,.1-.38,.14-.52,.14-.62,.15-1.16,.03-1.6Zm0,0c-.11-.44-.36-.77-.72-.97-.37-.2-.81-.31-1.33-.31-.35,0-.72,.06-1.08,.17-.36,.12-.7,.29-1.02,.51-.32,.22-.6,.47-.85,.76-.25,.29-.44,.57-.59,.84-.14,.27-.32,.64-.51,1.12h5.93c.06-.2,.1-.38,.14-.52,.14-.62,.15-1.16,.03-1.6Zm-110.55,0c-.12-.44-.36-.77-.72-.97-.37-.2-.81-.31-1.33-.31-.36,0-.72,.06-1.08,.17-.36,.12-.7,.29-1.02,.51-.32,.22-.61,.47-.85,.76-.25,.29-.44,.57-.59,.84-.15,.27-.32,.64-.51,1.12h5.93c.06-.2,.1-.38,.14-.52,.14-.62,.15-1.16,.03-1.6Zm0,0c-.12-.44-.36-.77-.72-.97-.37-.2-.81-.31-1.33-.31-.36,0-.72,.06-1.08,.17-.36,.12-.7,.29-1.02,.51-.32,.22-.61,.47-.85,.76-.25,.29-.44,.57-.59,.84-.15,.27-.32,.64-.51,1.12h5.93c.06-.2,.1-.38,.14-.52,.14-.62,.15-1.16,.03-1.6Zm78.27,38.59c-.1-.6-.38-1.07-.84-1.44-.47-.35-1.06-.53-1.79-.53-.77,0-1.5,.19-2.19,.59-.69,.39-1.27,.97-1.76,1.73-.48,.76-.82,1.59-1.03,2.49-.3,1.32-.21,2.33,.29,3.03,.5,.7,1.24,1.05,2.24,1.05,.75,0,1.48-.2,2.17-.6,.69-.4,1.28-1,1.76-1.78,.49-.78,.84-1.63,1.05-2.52,.17-.75,.2-1.42,.1-2.02Zm32.28-38.59c-.11-.44-.36-.77-.72-.97-.37-.2-.81-.31-1.33-.31-.35,0-.72,.06-1.08,.17-.36,.12-.7,.29-1.02,.51-.32,.22-.6,.47-.85,.76-.25,.29-.44,.57-.59,.84-.14,.27-.32,.64-.51,1.12h5.93c.06-.2,.1-.38,.14-.52,.14-.62,.15-1.16,.03-1.6Zm0,0c-.11-.44-.36-.77-.72-.97-.37-.2-.81-.31-1.33-.31-.35,0-.72,.06-1.08,.17-.36,.12-.7,.29-1.02,.51-.32,.22-.6,.47-.85,.76-.25,.29-.44,.57-.59,.84-.14,.27-.32,.64-.51,1.12h5.93c.06-.2,.1-.38,.14-.52,.14-.62,.15-1.16,.03-1.6Zm-32.28,38.59c-.1-.6-.38-1.07-.84-1.44-.47-.35-1.06-.53-1.79-.53-.77,0-1.5,.19-2.19,.59-.69,.39-1.27,.97-1.76,1.73-.48,.76-.82,1.59-1.03,2.49-.3,1.32-.21,2.33,.29,3.03,.5,.7,1.24,1.05,2.24,1.05,.75,0,1.48-.2,2.17-.6,.69-.4,1.28-1,1.76-1.78,.49-.78,.84-1.63,1.05-2.52,.17-.75,.2-1.42,.1-2.02Zm-78.27-38.59c-.12-.44-.36-.77-.72-.97-.37-.2-.81-.31-1.33-.31-.36,0-.72,.06-1.08,.17-.36,.12-.7,.29-1.02,.51-.32,.22-.61,.47-.85,.76-.25,.29-.44,.57-.59,.84-.15,.27-.32,.64-.51,1.12h5.93c.06-.2,.1-.38,.14-.52,.14-.62,.15-1.16,.03-1.6Zm0,0c-.12-.44-.36-.77-.72-.97-.37-.2-.81-.31-1.33-.31-.36,0-.72,.06-1.08,.17-.36,.12-.7,.29-1.02,.51-.32,.22-.61,.47-.85,.76-.25,.29-.44,.57-.59,.84-.15,.27-.32,.64-.51,1.12h5.93c.06-.2,.1-.38,.14-.52,.14-.62,.15-1.16,.03-1.6Zm78.27,38.59c-.1-.6-.38-1.07-.84-1.44-.47-.35-1.06-.53-1.79-.53-.77,0-1.5,.19-2.19,.59-.69,.39-1.27,.97-1.76,1.73-.48,.76-.82,1.59-1.03,2.49-.3,1.32-.21,2.33,.29,3.03,.5,.7,1.24,1.05,2.24,1.05,.75,0,1.48-.2,2.17-.6,.69-.4,1.28-1,1.76-1.78,.49-.78,.84-1.63,1.05-2.52,.17-.75,.2-1.42,.1-2.02Zm32.28-38.59c-.11-.44-.36-.77-.72-.97-.37-.2-.81-.31-1.33-.31-.35,0-.72,.06-1.08,.17-.36,.12-.7,.29-1.02,.51-.32,.22-.6,.47-.85,.76-.25,.29-.44,.57-.59,.84-.14,.27-.32,.64-.51,1.12h5.93c.06-.2,.1-.38,.14-.52,.14-.62,.15-1.16,.03-1.6Zm0,0c-.11-.44-.36-.77-.72-.97-.37-.2-.81-.31-1.33-.31-.35,0-.72,.06-1.08,.17-.36,.12-.7,.29-1.02,.51-.32,.22-.6,.47-.85,.76-.25,.29-.44,.57-.59,.84-.14,.27-.32,.64-.51,1.12h5.93c.06-.2,.1-.38,.14-.52,.14-.62,.15-1.16,.03-1.6Zm-32.28,38.59c-.1-.6-.38-1.07-.84-1.44-.47-.35-1.06-.53-1.79-.53-.77,0-1.5,.19-2.19,.59-.69,.39-1.27,.97-1.76,1.73-.48,.76-.82,1.59-1.03,2.49-.3,1.32-.21,2.33,.29,3.03,.5,.7,1.24,1.05,2.24,1.05,.75,0,1.48-.2,2.17-.6,.69-.4,1.28-1,1.76-1.78,.49-.78,.84-1.63,1.05-2.52,.17-.75,.2-1.42,.1-2.02Zm-78.27-38.59c-.12-.44-.36-.77-.72-.97-.37-.2-.81-.31-1.33-.31-.36,0-.72,.06-1.08,.17-.36,.12-.7,.29-1.02,.51-.32,.22-.61,.47-.85,.76-.25,.29-.44,.57-.59,.84-.15,.27-.32,.64-.51,1.12h5.93c.06-.2,.1-.38,.14-.52,.14-.62,.15-1.16,.03-1.6Zm0,0c-.12-.44-.36-.77-.72-.97-.37-.2-.81-.31-1.33-.31-.36,0-.72,.06-1.08,.17-.36,.12-.7,.29-1.02,.51-.32,.22-.61,.47-.85,.76-.25,.29-.44,.57-.59,.84-.15,.27-.32,.64-.51,1.12h5.93c.06-.2,.1-.38,.14-.52,.14-.62,.15-1.16,.03-1.6Zm78.27,38.59c-.1-.6-.38-1.07-.84-1.44-.47-.35-1.06-.53-1.79-.53-.77,0-1.5,.19-2.19,.59-.69,.39-1.27,.97-1.76,1.73-.48,.76-.82,1.59-1.03,2.49-.3,1.32-.21,2.33,.29,3.03,.5,.7,1.24,1.05,2.24,1.05,.75,0,1.48-.2,2.17-.6,.69-.4,1.28-1,1.76-1.78,.49-.78,.84-1.63,1.05-2.52,.17-.75,.2-1.42,.1-2.02Zm32.28-38.59c-.11-.44-.36-.77-.72-.97-.37-.2-.81-.31-1.33-.31-.35,0-.72,.06-1.08,.17-.36,.12-.7,.29-1.02,.51-.32,.22-.6,.47-.85,.76-.25,.29-.44,.57-.59,.84-.14,.27-.32,.64-.51,1.12h5.93c.06-.2,.1-.38,.14-.52,.14-.62,.15-1.16,.03-1.6Zm70.42,36.8c-.12-.45-.36-.77-.73-.97-.37-.21-.81-.31-1.32-.31-.36,0-.72,.06-1.08,.17-.37,.12-.71,.28-1.03,.5-.32,.23-.6,.48-.85,.77-.24,.29-.44,.56-.59,.83-.14,.27-.31,.65-.51,1.13h5.93c.06-.21,.11-.38,.14-.52,.14-.63,.16-1.16,.04-1.6Zm0,0c-.12-.45-.36-.77-.73-.97-.37-.21-.81-.31-1.32-.31-.36,0-.72,.06-1.08,.17-.37,.12-.71,.28-1.03,.5-.32,.23-.6,.48-.85,.77-.24,.29-.44,.56-.59,.83-.14,.27-.31,.65-.51,1.13h5.93c.06-.21,.11-.38,.14-.52,.14-.63,.16-1.16,.04-1.6Zm-70.42-36.8c-.11-.44-.36-.77-.72-.97-.37-.2-.81-.31-1.33-.31-.35,0-.72,.06-1.08,.17-.36,.12-.7,.29-1.02,.51-.32,.22-.6,.47-.85,.76-.25,.29-.44,.57-.59,.84-.14,.27-.32,.64-.51,1.12h5.93c.06-.2,.1-.38,.14-.52,.14-.62,.15-1.16,.03-1.6Zm-32.28,38.59c-.1-.6-.38-1.07-.84-1.44-.47-.35-1.06-.53-1.79-.53-.77,0-1.5,.19-2.19,.59-.69,.39-1.27,.97-1.76,1.73-.48,.76-.82,1.59-1.03,2.49-.3,1.32-.21,2.33,.29,3.03,.5,.7,1.24,1.05,2.24,1.05,.75,0,1.48-.2,2.17-.6,.69-.4,1.28-1,1.76-1.78,.49-.78,.84-1.63,1.05-2.52,.17-.75,.2-1.42,.1-2.02Zm-78.27-38.59c-.12-.44-.36-.77-.72-.97-.37-.2-.81-.31-1.33-.31-.36,0-.72,.06-1.08,.17-.36,.12-.7,.29-1.02,.51-.32,.22-.61,.47-.85,.76-.25,.29-.44,.57-.59,.84-.15,.27-.32,.64-.51,1.12h5.93c.06-.2,.1-.38,.14-.52,.14-.62,.15-1.16,.03-1.6Zm253.69-28.23H170.51c-.25,.15-.5,.31-.74,.46-4.63,.19-8.8,2.82-11.05,6.89-.03,.02-.06,.04-.09,.06-1.33,2.66-2.55,5.39-3.64,8.18-.33,.83-.65,1.67-.95,2.52-.02,.04-.04,.08-.05,.13-3.82,10.59-5.9,22.01-5.9,33.93,0,16.02,3.75,31.16,10.44,44.58,.12,.24,.24,.47,.38,.7,2.24,3.91,6.28,6.45,10.78,6.7,.24,.01,.49,.02,.73,.02H458.68c6.4,0,12.03-4.24,13.79-10.39l11.86-41.32,1.29-4.5,8.52-29.65c2.64-9.17-4.25-18.31-13.79-18.31Zm-271.33,26.18l-.51,2.77c-.62-.19-1.21-.29-1.78-.29-.72,0-1.37,.11-1.94,.31-.56,.22-1.1,.53-1.6,.96-.5,.42-.94,.95-1.33,1.59-.38,.63-.78,1.64-1.2,3.02-.41,1.37-.82,2.95-1.23,4.72-.14,.62-.3,1.4-.46,2.32-1.16-.03-2.33-.04-3.5-.04s-2.41,.01-3.75,.04l2.4-7.98,1.24-4.58c.2-.83,.4-1.67,.6-2.53,.2-.88,.44-1.96,.71-3.26,1.45,.03,2.59,.04,3.45,.04,.99,0,2.14-.01,3.44-.04l-.55,2.03c.59-.52,1.06-.91,1.42-1.17s.76-.49,1.19-.7c.43-.21,.87-.37,1.31-.47,.45-.1,.9-.15,1.35-.15s.9,.06,1.4,.18c-.29,1.3-.51,2.38-.66,3.23Zm24.12,4.62c-.16,.68-.41,1.44-.76,2.28l-12.6,.02c-.05,.19-.1,.36-.14,.52-.29,1.29-.05,2.23,.73,2.84,.78,.61,1.84,.92,3.17,.92,.79,0,1.71-.1,2.77-.28,1.05-.19,2.37-.5,3.96-.95-.32,.72-1.02,2.46-2.1,5.21-1.46,.28-2.67,.46-3.63,.55-.97,.09-1.94,.14-2.91,.14-1.42,0-2.71-.1-3.86-.3-1.16-.2-2.11-.55-2.86-1.05s-1.34-1.13-1.75-1.88c-.42-.74-.66-1.63-.72-2.66-.07-1.03,.02-2.09,.27-3.18,.35-1.53,1.01-3.03,1.95-4.5,.96-1.46,2.01-2.61,3.16-3.43,1.16-.83,2.4-1.42,3.74-1.76,1.34-.35,2.67-.52,3.98-.52s2.64,.16,3.8,.47c1.17,.32,2.09,.88,2.77,1.66,.68,.8,1.09,1.69,1.22,2.68,.14,1,.08,2.07-.19,3.22Zm12.25,4.1c.16,.62,.54,1.08,1.14,1.4,.6,.31,1.3,.46,2.1,.46,.41,0,.9-.04,1.48-.12,.57-.09,1.08-.18,1.52-.28,.43-.1,1-.27,1.69-.51-.17,.48-.52,1.36-1.04,2.64l-1.14,2.87c-1.98,.46-3.87,.69-5.67,.69-1.31,0-2.42-.14-3.34-.4-1.09-.31-2-.86-2.74-1.65-.76-.82-1.23-1.78-1.4-2.9-.22-1.3-.14-2.76,.24-4.38,.34-1.48,.92-2.92,1.74-4.29,.82-1.38,1.83-2.52,3.02-3.41s2.41-1.49,3.68-1.79c1.27-.31,2.63-.46,4.08-.46,.85,0,1.69,.04,2.54,.13,.84,.09,1.86,.29,3.06,.59l-.06,.41c-.06,.43-.14,.87-.22,1.32-.09,.45-.21,1.16-.38,2.13l-.26,1.6c-1.57-.6-3.02-.9-4.34-.9-.94,0-1.82,.18-2.61,.55-.8,.36-1.45,.89-1.95,1.58s-.85,1.49-1.06,2.4c-.22,.92-.24,1.69-.08,2.32Zm17,15.18c-.83,.16-1.65,.25-2.46,.25-.38,0-.86-.03-1.46-.08-.6-.06-1.08-.11-1.45-.16-.36-.06-.84-.16-1.43-.3,.29-2.86,.45-4.64,.48-5.34,.67,.36,1.28,.61,1.83,.74,.55,.13,1.04,.2,1.46,.2s.87-.06,1.29-.18c.42-.12,.76-.27,1.03-.44,.27-.18,.58-.44,.93-.8,.35-.36,.62-.67,.81-.93,.2-.25,.41-.62,.65-1.1l-1.02-10.23-.93-8.48c1.78,.03,3.03,.04,3.75,.04,.84,0,1.98-.01,3.44-.04,.01,.93,.07,2.52,.17,4.78,.09,2.27,.13,4.04,.11,5.32-.01,.71-.07,1.61-.18,2.7l.71-1.44c.21-.38,.45-.82,.72-1.31,.27-.49,.6-1.08,1-1.76l1.92-3.27,3.1-5.02c1.49,.03,2.61,.04,3.38,.04,.67,0,1.87-.01,3.6-.04l-5.27,7.84-9.63,14.53c-.59,.82-1.13,1.46-1.61,1.94-.45,.43-.91,.81-1.4,1.13-.45,.3-.92,.56-1.41,.76-.66,.28-1.37,.49-2.13,.65Zm20.86,19.1l-2.14,8.48c-.3,1.17-.47,1.86-.51,2.06-.32,1.38-.7,2.55-1.13,3.52-.43,.96-1.03,1.73-1.79,2.31-.76,.58-1.64,.99-2.62,1.22-.98,.24-2.07,.36-3.25,.36-.71,0-1.57-.04-2.57-.13-1.01-.08-2.11-.23-3.32-.45,.23-1.31,.48-3.09,.75-5.34,.99,.33,1.89,.49,2.71,.49,.65,0,1.28-.13,1.86-.38,.47-.19,.85-.44,1.16-.75,.32-.31,.6-.73,.85-1.26,.23-.47,.51-1.26,.86-2.39,.65-2.2,1.38-4.89,2.2-8.07,.68-2.69,1.25-5.02,1.7-6.99l.43-1.83c1.42,.03,2.65,.04,3.69,.04,1.1,0,2.3,0,3.6-.04l-2.48,9.15Zm2.99-11.52c-1.16-.04-2.33-.05-3.5-.05s-2.39,.01-3.54,.05c.52-1.74,.92-3.17,1.19-4.28,.97,.03,2.16,.04,3.55,.04,1.24,0,2.42-.01,3.53-.04-.53,1.75-.93,3.17-1.23,4.28Zm.88-17.66c-.76-.82-1.23-1.78-1.4-2.9-.21-1.3-.13-2.76,.24-4.38,.34-1.48,.92-2.92,1.74-4.29,.83-1.38,1.83-2.52,3.02-3.41s2.42-1.49,3.68-1.79c1.27-.31,2.63-.46,4.08-.46,.85,0,1.7,.04,2.54,.13,.84,.09,1.86,.29,3.06,.59l-.06,.41c-.06,.43-.14,.87-.22,1.32-.09,.45-.21,1.16-.38,2.13l-.26,1.6c-1.57-.6-3.02-.9-4.34-.9-.94,0-1.81,.18-2.61,.55-.8,.36-1.45,.89-1.95,1.58s-.85,1.49-1.06,2.4c-.22,.92-.24,1.69-.08,2.32,.16,.62,.54,1.08,1.14,1.4,.6,.31,1.3,.46,2.1,.46,.41,0,.9-.04,1.48-.12,.57-.09,1.08-.18,1.52-.28,.43-.1,1-.27,1.69-.51-.17,.48-.52,1.36-1.04,2.64l-1.13,2.87c-1.99,.46-3.88,.69-5.68,.69-1.3,0-2.42-.14-3.34-.4-1.09-.31-2-.86-2.74-1.65Zm24.89,28.91c-.29,1.28-.77,2.5-1.44,3.65-.67,1.16-1.6,2.24-2.79,3.25-1.19,1.02-2.59,1.78-4.18,2.28-1.6,.5-3.22,.75-4.87,.75-1.53,0-2.94-.22-4.24-.66s-2.32-1.09-3.06-1.94c-.74-.85-1.22-1.87-1.41-3.06-.21-1.18-.15-2.43,.15-3.73,.3-1.31,.82-2.56,1.55-3.74,.74-1.19,1.71-2.25,2.93-3.2,1.22-.95,2.62-1.67,4.22-2.18,1.59-.51,3.18-.77,4.77-.77,1.49,0,2.86,.23,4.13,.69,1.27,.45,2.27,1.11,3.02,1.96,.75,.86,1.22,1.86,1.4,3,.19,1.15,.13,2.38-.18,3.7Zm2.04-27.33c-1.28-.01-2.44-.02-3.47-.02l-3.91,.02,1.22-3.87,3.79-13.43,1.87-7.23c1.66,.03,2.91,.04,3.75,.04,1.09,0,2.3-.01,3.62-.04l-1.68,5.52-3.8,13.58-1.39,5.43Zm24.82,27.13c-.79,2.74-1.66,5.96-2.59,9.67-1.36-.03-2.5-.04-3.41-.04-1.13,0-2.26,.01-3.41,.04l.55-2.47c-.55,.54-1.01,.95-1.37,1.22-.37,.27-.75,.5-1.15,.71-.4,.2-.83,.38-1.31,.53-.47,.15-1,.26-1.59,.35-.58,.08-1.17,.12-1.76,.12-.94,0-1.81-.11-2.61-.33-.79-.22-1.45-.59-1.96-1.12-.52-.53-.82-1.13-.9-1.8s-.02-1.45,.19-2.34c.05-.21,.14-.55,.28-1l1.23-4.08c.43-1.5,.89-3.16,1.38-4.98,.31-1.11,.58-2.16,.81-3.16,1.48,.03,2.74,.04,3.78,.04s2.22,0,3.49-.04l-2.13,6.85c-.33,1.04-.54,1.75-.63,2.13-.09,.37-.16,.63-.19,.76-.29,1.26-.23,2.11,.18,2.55s.97,.67,1.68,.67c.28,0,.58-.05,.89-.13,.31-.08,.61-.2,.91-.36,.26-.14,.51-.32,.76-.54,.25-.23,.5-.5,.73-.83,.28-.39,.52-.82,.72-1.27,.28-.64,.57-1.44,.87-2.41,.21-.7,.55-1.93,1.04-3.66l1-3.76c1.54,.03,2.81,.04,3.8,.04,1.11,0,2.23,0,3.36-.04-.97,3.04-1.86,5.94-2.64,8.68Zm4.82-37.91c-.16,.68-.41,1.44-.76,2.28l-12.6,.02c-.05,.19-.1,.36-.14,.52-.29,1.29-.05,2.23,.73,2.84,.78,.61,1.84,.92,3.17,.92,.79,0,1.71-.1,2.77-.28,1.05-.19,2.37-.5,3.96-.95-.32,.72-1.02,2.46-2.1,5.21-1.45,.28-2.66,.46-3.63,.55-.97,.09-1.94,.14-2.91,.14-1.42,0-2.71-.1-3.86-.3-1.16-.2-2.11-.55-2.86-1.05s-1.34-1.13-1.75-1.88c-.41-.74-.66-1.63-.72-2.66-.07-1.03,.02-2.09,.27-3.18,.36-1.53,1.01-3.03,1.96-4.5,.95-1.46,2-2.61,3.15-3.43,1.16-.83,2.4-1.42,3.74-1.76,1.34-.35,2.67-.52,3.98-.52s2.64,.16,3.8,.47c1.17,.32,2.09,.88,2.77,1.66,.68,.8,1.09,1.69,1.23,2.68,.13,1,.07,2.07-.2,3.22Zm17.6,32.18l-.51,2.77c-.61-.2-1.21-.29-1.78-.29-.72,0-1.36,.1-1.93,.31-.57,.21-1.11,.53-1.6,.95-.5,.43-.95,.96-1.33,1.59-.39,.64-.79,1.65-1.2,3.02-.42,1.38-.83,2.96-1.24,4.73-.14,.62-.29,1.39-.46,2.32-1.16-.03-2.32-.04-3.5-.04s-2.41,.01-3.75,.04l2.4-7.98,1.24-4.58c.2-.83,.4-1.67,.6-2.54s.44-1.95,.72-3.25c1.44,.03,2.59,.04,3.44,.04,.99,0,2.14,0,3.44-.04l-.54,2.03c.59-.53,1.06-.92,1.42-1.18,.36-.25,.75-.49,1.18-.7,.44-.21,.87-.36,1.32-.46,.44-.1,.89-.16,1.34-.16s.9,.06,1.4,.18c-.29,1.31-.51,2.39-.66,3.24Zm26.88,2.39c-.1,.45-.38,1.43-.82,2.94l-1.81,6.51c-.36,1.28-.66,2.47-.92,3.56-1.2-.03-2.33-.04-3.38-.04-1.42,0-2.72,.01-3.9,.04,.36-1.09,.85-2.71,1.46-4.87,.62-2.14,1.03-3.66,1.23-4.53,.31-1.35,.27-2.3-.13-2.83-.4-.53-.99-.8-1.78-.8-.7,0-1.41,.23-2.13,.68-.72,.46-1.35,1.12-1.89,1.99-.53,.87-1.1,2.29-1.7,4.28-.59,1.99-1.16,4.02-1.68,6.08-1.19-.03-2.35-.04-3.49-.04-1.2,0-2.5,.01-3.91,.04,.98-2.72,1.93-5.73,2.88-9.01,.94-3.29,1.77-6.4,2.48-9.34,1.43,.03,2.67,.04,3.72,.04,1.21,0,2.37,0,3.49-.04l-.74,2.44c.5-.44,.92-.79,1.27-1.05,.34-.25,.76-.5,1.24-.75,.48-.25,.98-.45,1.5-.6,.51-.16,1.06-.28,1.65-.37,.59-.09,1.2-.14,1.82-.14,.86,0,1.68,.1,2.46,.28,.78,.19,1.4,.45,1.88,.79,.47,.34,.83,.77,1.09,1.28,.25,.51,.37,1.06,.35,1.64,0,.59-.09,1.2-.24,1.82Zm25.17,4.51l-12.6,.02c-.05,.19-.1,.36-.13,.51-.3,1.29-.06,2.24,.72,2.85,.79,.61,1.84,.91,3.17,.91,.79,0,1.71-.09,2.77-.28,1.05-.18,2.37-.5,3.96-.94-.32,.72-1.02,2.45-2.1,5.21-1.45,.28-2.66,.46-3.63,.55-.97,.09-1.93,.13-2.9,.13-1.43,0-2.72-.1-3.87-.29-1.15-.2-2.11-.55-2.86-1.05-.75-.51-1.33-1.13-1.75-1.88-.41-.75-.65-1.64-.72-2.67-.07-1.02,.02-2.08,.28-3.17,.35-1.53,1-3.03,1.95-4.5,.95-1.46,2-2.61,3.16-3.44,1.15-.82,2.4-1.41,3.73-1.75,1.34-.35,2.67-.53,3.99-.53s2.63,.16,3.8,.48c1.16,.32,2.08,.87,2.77,1.66,.68,.79,1.08,1.68,1.22,2.68,.13,.99,.07,2.07-.2,3.22-.15,.68-.41,1.44-.76,2.28Zm14.27,12.52c-.59,.81-1.13,1.46-1.61,1.94-.45,.43-.91,.81-1.4,1.13-.45,.3-.92,.55-1.41,.76-.66,.27-1.37,.49-2.13,.64-.83,.17-1.65,.26-2.46,.26-.38,0-.86-.03-1.46-.08-.6-.06-1.08-.11-1.45-.17-.36-.05-.84-.15-1.43-.29,.29-2.87,.45-4.65,.48-5.34,.67,.36,1.28,.61,1.83,.74s1.04,.19,1.46,.19,.87-.06,1.29-.18c.42-.12,.76-.26,1.03-.44,.27-.17,.58-.44,.93-.8,.35-.35,.62-.66,.81-.92,.2-.26,.41-.63,.65-1.1l-1.02-10.23-.93-8.48c1.78,.03,3.03,.04,3.75,.04,.84,0,1.98,0,3.44-.04,.01,.92,.07,2.52,.16,4.78,.1,2.26,.14,4.04,.12,5.32-.01,.71-.07,1.6-.18,2.69l.71-1.43c.21-.39,.45-.82,.72-1.32,.27-.49,.6-1.07,1-1.76l1.92-3.27,3.1-5.01c1.49,.03,2.61,.04,3.38,.04,.67,0,1.87,0,3.6-.04l-5.27,7.84-9.63,14.53Zm-20.71-18.34c-.37-.21-.81-.31-1.32-.31-.36,0-.72,.06-1.08,.17-.37,.12-.71,.28-1.03,.5-.32,.23-.6,.48-.85,.77-.24,.29-.44,.56-.59,.83-.14,.27-.31,.65-.51,1.13h5.93c.06-.21,.11-.38,.14-.52,.14-.63,.16-1.16,.04-1.6-.12-.45-.36-.77-.73-.97Zm-70.41-36.8c-.37-.2-.81-.31-1.33-.31-.35,0-.72,.06-1.08,.17-.36,.12-.7,.29-1.02,.51-.32,.22-.6,.47-.85,.76-.25,.29-.44,.57-.59,.84-.14,.27-.32,.64-.51,1.12h5.93c.06-.2,.1-.38,.14-.52,.14-.62,.15-1.16,.03-1.6-.11-.44-.36-.77-.72-.97Zm-32.4,38.12c-.47-.35-1.06-.53-1.79-.53-.77,0-1.5,.19-2.19,.59-.69,.39-1.27,.97-1.76,1.73-.48,.76-.82,1.59-1.03,2.49-.3,1.32-.21,2.33,.29,3.03,.5,.7,1.24,1.05,2.24,1.05,.75,0,1.48-.2,2.17-.6,.69-.4,1.28-1,1.76-1.78,.49-.78,.84-1.63,1.05-2.52,.17-.75,.2-1.42,.1-2.02-.1-.6-.38-1.07-.84-1.44Zm-78.15-38.12c-.37-.2-.81-.31-1.33-.31-.36,0-.72,.06-1.08,.17-.36,.12-.7,.29-1.02,.51-.32,.22-.61,.47-.85,.76-.25,.29-.44,.57-.59,.84-.15,.27-.32,.64-.51,1.12h5.93c.06-.2,.1-.38,.14-.52,.14-.62,.15-1.16,.03-1.6s-.36-.77-.72-.97Zm.72,.97c-.12-.44-.36-.77-.72-.97-.37-.2-.81-.31-1.33-.31-.36,0-.72,.06-1.08,.17-.36,.12-.7,.29-1.02,.51-.32,.22-.61,.47-.85,.76-.25,.29-.44,.57-.59,.84-.15,.27-.32,.64-.51,1.12h5.93c.06-.2,.1-.38,.14-.52,.14-.62,.15-1.16,.03-1.6Zm78.27,38.59c-.1-.6-.38-1.07-.84-1.44-.47-.35-1.06-.53-1.79-.53-.77,0-1.5,.19-2.19,.59-.69,.39-1.27,.97-1.76,1.73-.48,.76-.82,1.59-1.03,2.49-.3,1.32-.21,2.33,.29,3.03,.5,.7,1.24,1.05,2.24,1.05,.75,0,1.48-.2,2.17-.6,.69-.4,1.28-1,1.76-1.78,.49-.78,.84-1.63,1.05-2.52,.17-.75,.2-1.42,.1-2.02Zm32.28-38.59c-.11-.44-.36-.77-.72-.97-.37-.2-.81-.31-1.33-.31-.35,0-.72,.06-1.08,.17-.36,.12-.7,.29-1.02,.51-.32,.22-.6,.47-.85,.76-.25,.29-.44,.57-.59,.84-.14,.27-.32,.64-.51,1.12h5.93c.06-.2,.1-.38,.14-.52,.14-.62,.15-1.16,.03-1.6Zm0,0c-.11-.44-.36-.77-.72-.97-.37-.2-.81-.31-1.33-.31-.35,0-.72,.06-1.08,.17-.36,.12-.7,.29-1.02,.51-.32,.22-.6,.47-.85,.76-.25,.29-.44,.57-.59,.84-.14,.27-.32,.64-.51,1.12h5.93c.06-.2,.1-.38,.14-.52,.14-.62,.15-1.16,.03-1.6Zm-32.28,38.59c-.1-.6-.38-1.07-.84-1.44-.47-.35-1.06-.53-1.79-.53-.77,0-1.5,.19-2.19,.59-.69,.39-1.27,.97-1.76,1.73-.48,.76-.82,1.59-1.03,2.49-.3,1.32-.21,2.33,.29,3.03,.5,.7,1.24,1.05,2.24,1.05,.75,0,1.48-.2,2.17-.6,.69-.4,1.28-1,1.76-1.78,.49-.78,.84-1.63,1.05-2.52,.17-.75,.2-1.42,.1-2.02Zm-78.27-38.59c-.12-.44-.36-.77-.72-.97-.37-.2-.81-.31-1.33-.31-.36,0-.72,.06-1.08,.17-.36,.12-.7,.29-1.02,.51-.32,.22-.61,.47-.85,.76-.25,.29-.44,.57-.59,.84-.15,.27-.32,.64-.51,1.12h5.93c.06-.2,.1-.38,.14-.52,.14-.62,.15-1.16,.03-1.6Zm0,0c-.12-.44-.36-.77-.72-.97-.37-.2-.81-.31-1.33-.31-.36,0-.72,.06-1.08,.17-.36,.12-.7,.29-1.02,.51-.32,.22-.61,.47-.85,.76-.25,.29-.44,.57-.59,.84-.15,.27-.32,.64-.51,1.12h5.93c.06-.2,.1-.38,.14-.52,.14-.62,.15-1.16,.03-1.6Zm78.27,38.59c-.1-.6-.38-1.07-.84-1.44-.47-.35-1.06-.53-1.79-.53-.77,0-1.5,.19-2.19,.59-.69,.39-1.27,.97-1.76,1.73-.48,.76-.82,1.59-1.03,2.49-.3,1.32-.21,2.33,.29,3.03,.5,.7,1.24,1.05,2.24,1.05,.75,0,1.48-.2,2.17-.6,.69-.4,1.28-1,1.76-1.78,.49-.78,.84-1.63,1.05-2.52,.17-.75,.2-1.42,.1-2.02Zm32.28-38.59c-.11-.44-.36-.77-.72-.97-.37-.2-.81-.31-1.33-.31-.35,0-.72,.06-1.08,.17-.36,.12-.7,.29-1.02,.51-.32,.22-.6,.47-.85,.76-.25,.29-.44,.57-.59,.84-.14,.27-.32,.64-.51,1.12h5.93c.06-.2,.1-.38,.14-.52,.14-.62,.15-1.16,.03-1.6Zm0,0c-.11-.44-.36-.77-.72-.97-.37-.2-.81-.31-1.33-.31-.35,0-.72,.06-1.08,.17-.36,.12-.7,.29-1.02,.51-.32,.22-.6,.47-.85,.76-.25,.29-.44,.57-.59,.84-.14,.27-.32,.64-.51,1.12h5.93c.06-.2,.1-.38,.14-.52,.14-.62,.15-1.16,.03-1.6Zm-32.28,38.59c-.1-.6-.38-1.07-.84-1.44-.47-.35-1.06-.53-1.79-.53-.77,0-1.5,.19-2.19,.59-.69,.39-1.27,.97-1.76,1.73-.48,.76-.82,1.59-1.03,2.49-.3,1.32-.21,2.33,.29,3.03,.5,.7,1.24,1.05,2.24,1.05,.75,0,1.48-.2,2.17-.6,.69-.4,1.28-1,1.76-1.78,.49-.78,.84-1.63,1.05-2.52,.17-.75,.2-1.42,.1-2.02Zm-78.27-38.59c-.12-.44-.36-.77-.72-.97-.37-.2-.81-.31-1.33-.31-.36,0-.72,.06-1.08,.17-.36,.12-.7,.29-1.02,.51-.32,.22-.61,.47-.85,.76-.25,.29-.44,.57-.59,.84-.15,.27-.32,.64-.51,1.12h5.93c.06-.2,.1-.38,.14-.52,.14-.62,.15-1.16,.03-1.6Zm0,0c-.12-.44-.36-.77-.72-.97-.37-.2-.81-.31-1.33-.31-.36,0-.72,.06-1.08,.17-.36,.12-.7,.29-1.02,.51-.32,.22-.61,.47-.85,.76-.25,.29-.44,.57-.59,.84-.15,.27-.32,.64-.51,1.12h5.93c.06-.2,.1-.38,.14-.52,.14-.62,.15-1.16,.03-1.6Zm110.55,0c-.11-.44-.36-.77-.72-.97-.37-.2-.81-.31-1.33-.31-.35,0-.72,.06-1.08,.17-.36,.12-.7,.29-1.02,.51-.32,.22-.6,.47-.85,.76-.25,.29-.44,.57-.59,.84-.14,.27-.32,.64-.51,1.12h5.93c.06-.2,.1-.38,.14-.52,.14-.62,.15-1.16,.03-1.6Zm0,0c-.11-.44-.36-.77-.72-.97-.37-.2-.81-.31-1.33-.31-.35,0-.72,.06-1.08,.17-.36,.12-.7,.29-1.02,.51-.32,.22-.6,.47-.85,.76-.25,.29-.44,.57-.59,.84-.14,.27-.32,.64-.51,1.12h5.93c.06-.2,.1-.38,.14-.52,.14-.62,.15-1.16,.03-1.6Zm-110.55,0c-.12-.44-.36-.77-.72-.97-.37-.2-.81-.31-1.33-.31-.36,0-.72,.06-1.08,.17-.36,.12-.7,.29-1.02,.51-.32,.22-.61,.47-.85,.76-.25,.29-.44,.57-.59,.84-.15,.27-.32,.64-.51,1.12h5.93c.06-.2,.1-.38,.14-.52,.14-.62,.15-1.16,.03-1.6Zm0,0c-.12-.44-.36-.77-.72-.97-.37-.2-.81-.31-1.33-.31-.36,0-.72,.06-1.08,.17-.36,.12-.7,.29-1.02,.51-.32,.22-.61,.47-.85,.76-.25,.29-.44,.57-.59,.84-.15,.27-.32,.64-.51,1.12h5.93c.06-.2,.1-.38,.14-.52,.14-.62,.15-1.16,.03-1.6Zm110.55,0c-.11-.44-.36-.77-.72-.97-.37-.2-.81-.31-1.33-.31-.35,0-.72,.06-1.08,.17-.36,.12-.7,.29-1.02,.51-.32,.22-.6,.47-.85,.76-.25,.29-.44,.57-.59,.84-.14,.27-.32,.64-.51,1.12h5.93c.06-.2,.1-.38,.14-.52,.14-.62,.15-1.16,.03-1.6Zm0,0c-.11-.44-.36-.77-.72-.97-.37-.2-.81-.31-1.33-.31-.35,0-.72,.06-1.08,.17-.36,.12-.7,.29-1.02,.51-.32,.22-.6,.47-.85,.76-.25,.29-.44,.57-.59,.84-.14,.27-.32,.64-.51,1.12h5.93c.06-.2,.1-.38,.14-.52,.14-.62,.15-1.16,.03-1.6Zm-110.55,0c-.12-.44-.36-.77-.72-.97-.37-.2-.81-.31-1.33-.31-.36,0-.72,.06-1.08,.17-.36,.12-.7,.29-1.02,.51-.32,.22-.61,.47-.85,.76-.25,.29-.44,.57-.59,.84-.15,.27-.32,.64-.51,1.12h5.93c.06-.2,.1-.38,.14-.52,.14-.62,.15-1.16,.03-1.6Zm0,0c-.12-.44-.36-.77-.72-.97-.37-.2-.81-.31-1.33-.31-.36,0-.72,.06-1.08,.17-.36,.12-.7,.29-1.02,.51-.32,.22-.61,.47-.85,.76-.25,.29-.44,.57-.59,.84-.15,.27-.32,.64-.51,1.12h5.93c.06-.2,.1-.38,.14-.52,.14-.62,.15-1.16,.03-1.6Zm0,0c-.12-.44-.36-.77-.72-.97-.37-.2-.81-.31-1.33-.31-.36,0-.72,.06-1.08,.17-.36,.12-.7,.29-1.02,.51-.32,.22-.61,.47-.85,.76-.25,.29-.44,.57-.59,.84-.15,.27-.32,.64-.51,1.12h5.93c.06-.2,.1-.38,.14-.52,.14-.62,.15-1.16,.03-1.6Zm0,0c-.12-.44-.36-.77-.72-.97-.37-.2-.81-.31-1.33-.31-.36,0-.72,.06-1.08,.17-.36,.12-.7,.29-1.02,.51-.32,.22-.61,.47-.85,.76-.25,.29-.44,.57-.59,.84-.15,.27-.32,.64-.51,1.12h5.93c.06-.2,.1-.38,.14-.52,.14-.62,.15-1.16,.03-1.6Zm0,0c-.12-.44-.36-.77-.72-.97-.37-.2-.81-.31-1.33-.31-.36,0-.72,.06-1.08,.17-.36,.12-.7,.29-1.02,.51-.32,.22-.61,.47-.85,.76-.25,.29-.44,.57-.59,.84-.15,.27-.32,.64-.51,1.12h5.93c.06-.2,.1-.38,.14-.52,.14-.62,.15-1.16,.03-1.6Z"/>
  </g>
</svg>